<?xml version="1.0" encoding="iso-8859-1"?>
<!-- Generator: Adobe Illustrator 16.0.0, SVG Export Plug-In . SVG Version: 6.00 Build 0)  -->
<!DOCTYPE svg PUBLIC "-//W3C//DTD SVG 1.1//EN" "http://www.w3.org/Graphics/SVG/1.1/DTD/svg11.dtd">
<svg version="1.1" id="Capa_1" xmlns="http://www.w3.org/2000/svg" xmlns:xlink="http://www.w3.org/1999/xlink" x="0px" y="0px"
	 width="191.146px" height="191.146px" viewBox="0 0 191.146 191.146" style="enable-background:new 0 0 191.146 191.146;"
	 xml:space="preserve">
<g>
	<path d="M170.494,90.585c-2.141-6.904-6.621-13.314-11.677-18.893c0.977-3.571,0.457-7.947-0.007-11.398
		c-0.553-4.099-1.673-7.869-4.263-11.142c-3.534-4.464-8.628-4.03-13.412-2.011c-0.066-0.745-0.196-1.52-0.46-2.354
		c-2.838-8.992-14.411-10.421-22.665-9.393c-0.429-3.142-1.26-6.193-1.479-9.369c-0.057-0.824-0.547-1.704-1.432-1.881
		c-7.549-1.505-14.962-0.031-19.78,6.331c-0.675,0.891,0.61,2.026,1.483,1.483c5.176-3.212,10.02-5.134,16.017-4.241
		c0.406,3.334,1.281,6.581,1.417,9.968c0.055,1.385,1.233,2.179,2.544,1.938c6.634-1.219,15.149-0.791,19.374,5.327
		c1.24,1.796,1.353,3.227,0.776,4.367c-1.592,0.964-3.066,1.998-4.344,2.961c-2.828,0.924-6.22,1.221-8.012,1.242
		c-3.211,0.037-3.206,5.081,0,4.977c0.014-0.001,0.03-0.002,0.044-0.003c-0.316,0.477-0.394,1.096,0.047,1.766
		c2.186,3.321,5.322,7.062,5.845,11.164c0.332,2.602-7.726,0.448-8.588,0.229c-2.621-0.669-5.189-1.734-7.854-2.242
		c-0.056-0.044-0.09-0.102-0.151-0.141c-3.391-2.215-8.145-4.348-12.154-5.124c-0.82-0.159-1.374,0.146-2.107,0.472
		c-4.413,1.964-7.422,4.965-12.878,2.834c-0.867-0.339-1.719,0.242-2.204,0.897c-6.406,6.089-11.61,6.629-15.611,1.623
		c-0.466-0.419-1.076-0.439-1.585-0.233c0.331-0.927-0.566-1.963-1.731-1.468c-2.042,0.867-4.019,1.781-6.049,2.612
		c-0.131-0.208-0.249-0.421-0.382-0.629c-1.027-1.609-3.438-0.199-2.553,1.492c0.032,0.062,0.059,0.125,0.091,0.187
		c-2.79,0.592-11.269,1.1-9.49-3.103c1.746-4.127,4.022-7.96,6.929-11.37c6.249-7.33,14.073-11.134,23.737-9.872
		c0.843,0.11,1.299-0.381,1.435-1.003c0.002-0.005,0.002-0.011,0.004-0.017c0.025-0.119,0.041-0.237,0.041-0.363
		c0.003-0.067,0.029-0.122,0.022-0.194c-0.353-3.572-0.16-7.533,2.209-10.448c2.331-2.869,6.205-3.21,9.615-2.844
		c1.906,0.204,2.327-2.993,0.452-3.34c-4.699-0.868-9.581-0.433-12.909,3.342c-2.694,3.056-3.139,7.16-2.713,11.075
		c-10.075-2.768-18.163,2.723-24.148,10.489c-1.637-2.377-3.855-4.334-5.865-6.404c-0.818-0.843-2.09-0.739-2.922,0
		c-11.383,10.122-22.603,22.907-29.29,36.688c-0.811,1.672-0.142,3.552,1.683,4.136c2.323,0.744,4.606,0.825,6.971,0.723
		c-0.212,0.455-0.391,0.946-0.583,1.422C-4.026,95.765-5.129,125.3,9.166,143.333c16.113,20.327,50.136,22.221,73.761,23.819
		c33.176,2.245,75.129-4.771,98.565-30.519C198.486,117.97,191.941,98.542,170.494,90.585z M39.055,88.444
		c10.268,6.467,14.829,20.487,16.283,32.079c-9.743-5.131-20.632-7.864-30.946-11.68C24.522,99.404,26.378,80.46,39.055,88.444z
		 M19.729,113.658c11.568,4.902,24.057,7.163,36.16,10.389c0.121,0.031,0.23,0.021,0.343,0.024c1.142,1.245,3.429,1.106,3.959-0.56
		c12.225,6.772,27.347,10.793,40.356,15.02c1.253,0.406,3.059-0.465,3.266-1.854c0.295-1.982,0.62-3.961,0.951-5.938
		c5.771,1.367,12.925,0.496,18.589,0.751c8.179,0.368,16.355,0.808,24.544,0.547c1.45-0.046,2.777-1.207,2.729-2.729
		c-0.123-3.938-0.433-7.816-0.834-11.676c0.078-0.002,0.146,0.023,0.229,0.012c7.44-1.043,14.309-3.367,18.278-8.194
		c12.845,13.247-9.054,21.283-20.508,25.466c-17.139,6.258-35.372,9.951-53.362,12.754c-16.013,2.494-30.725,0.812-46.331-3.859
		c-10.485-3.139-20.966-7.881-28.848-15.629c-8.232-8.09-5.284-17.729-0.204-26.172c-0.514,3.379-0.768,6.567-0.852,8.974
		C18.161,111.957,18.786,113.257,19.729,113.658z M105.834,124.468c0.376-2.188,0.746-4.377,1.089-6.569
		c0.121-0.054,0.236-0.069,0.36-0.152c10.777-7.292,21.37-14.653,33.352-19.758c0.202,0.052,0.405,0.097,0.614,0.095
		c2.289,9.324,3.686,18.743,3.877,28.35c-7.26-0.34-14.518-0.707-21.773-1.121C118.09,125.011,111.436,123.675,105.834,124.468z
		 M164.091,90.08c-1.653,1.564-1.634,4.945,1.239,5.811c0.259,0.078,0.514,0.164,0.771,0.246
		c1.674,10.013-6.634,15.817-16.703,18.108c-0.876-6.913-2.176-13.752-4.079-20.587c-0.228-0.816-0.994-1.531-1.855-1.769
		c0.143-8.304,0.587-16.553,4.801-23.788C154.543,74.601,160.399,81.814,164.091,90.08z M103.08,68.479
		c1.805,0.556,3.57,1.221,5.296,1.995c3.287,1.413,1.767,1.83,2.979-0.383c-0.714,1.303,0.218,2.558,1.559,2.717
		c6.12,0.727,11.605,4.665,17.997,3.193c8.394-1.933-1.201-15.049-3.096-17.58c-0.06-0.078-0.136-0.115-0.199-0.181
		c4.65-0.628,9.819-2.409,12.218-5.895c4.124-1.993,8.706-2.91,11.475,1.235c2.591,3.88,2.196,8.296,2.127,12.625
		c-1.303-1.238-2.602-2.421-3.866-3.537c-1.176-1.037-2.845-0.851-3.712,0.478c-6.023,9.245-6.835,19.45-6.805,30.138
		c-2.558,1.137-5.056,2.375-7.514,3.68c-1.974-6.366-8.777-11.811-13.839-15.812c-5.473-4.325-11.134-8.451-16.784-12.545
		C101.441,68.26,102.037,68.157,103.08,68.479z M98.826,70.51c5.084,4.773,10.447,9.196,15.368,14.147
		c4.451,4.479,8.577,10.631,13.682,14.328c-6.995,3.993-13.649,8.562-20.166,13.383c0.561-4.323,0.962-8.665,1.027-13.045
		c0.021-1.429-1.151-2.39-2.487-2.487c-3.145-0.228-6.278-0.232-9.4-0.084c1.203-0.385,2.223-1.527,1.923-3.121
		c-1.332-7.099-3.651-14.022-6.377-20.716C94.749,72.795,97.145,71.892,98.826,70.51z M78.559,80.311
		c1.491-1.255,3.096-1.794,4.172-3.452c0.262-0.404,0.25-0.831,0.138-1.233c1.846-1.64,3.613-3.255,5.147-3.321
		c2.575,7.469,4.039,15.007,5.721,22.715c0.239,1.097,0.952,1.634,1.76,1.796c-5.706,0.355-11.375,1.238-17.007,2.387
		c-2.379,0.484-5.785,1.082-9.133,2.04c0.743-0.558,1.249-1.455,1.05-2.601c-0.321-1.848-0.75-3.655-1.205-5.453
		c0.027-0.056,0.066-0.093,0.088-0.156c1.195-3.462,3.08-6.561,5.556-9.255C75.984,82.539,77.273,81.393,78.559,80.311z
		 M66.469,70.682c-0.09,0.323-0.048,0.687,0.212,1.055c1.961,2.775,4.161,5.54,7.263,6.698c-0.785,0.818-1.489,1.648-2.059,2.38
		c-1.78,2.287-3.145,4.803-4.131,7.479c-1.663-5.076-3.796-9.971-6.483-14.646C63.051,72.878,64.794,71.886,66.469,70.682z
		 M20.345,84.656c6.956-11.795,15.389-21.954,24.369-32.28c1.646,1.679,3.319,3.345,5.286,4.603
		c-2.935,4.372-5.274,9.195-6.978,13.585c-0.274,0.705,0.184,1.49,0.759,1.865c4.676,3.054,9.602,3.579,14.349,2.326
		c3.684,8.006,5.755,16.564,7.336,25.249c0.221,1.213,1.042,1.777,1.956,1.846c-3.603,1.216-6.887,2.92-8.41,5.453
		c-0.276,0.459,0.082,1.025,0.596,1.039c5.393,0.139,11.954-3.303,17.311-4.484c8.737-1.928,17.776-2.829,26.714-2.245
		c-0.599,10.36-2.74,20.498-4.454,30.72c-12.811-5.005-26.029-12.652-39.368-15.181c-1.884-13.295-8.846-28.459-20.878-34.296
		c-6.719-3.26-11.302-1.204-14.418,3.121C23.125,85.536,21.734,85.096,20.345,84.656z M184.044,119.193
		c-2.264,9.203-10.473,16.879-17.741,22.342c-22.491,16.905-56.227,20.928-83.374,19.887c-18.193-0.697-37.037-2.879-53.908-10.061
		C6.48,141.765-4.65,111.675,17.05,97.833c-16.752,16.424-7.062,35.106,12.736,45.639c18.859,10.035,41.503,14.188,62.6,11.291
		c15.038-2.064,119.627-21.529,78.954-51.599c0.343-1.493,0.465-3.157,0.429-4.942C180.456,102.038,186.747,108.201,184.044,119.193
		z"/>
	<path d="M37.139,76.812c-1.108-1.311-2.951-2.635-3.235-4.406c-0.181-1.126-1.925-0.816-1.936,0.262
		c-0.024,2.43,1.724,4.375,3.464,5.851C36.622,79.531,38.146,78.005,37.139,76.812z"/>
	<path d="M47.694,76.268c-0.036-0.209-0.076-0.42-0.108-0.627c-0.196-1.299-2.418-1.299-2.614,0
		c-0.031,0.207-0.072,0.419-0.108,0.627c-0.357,0.318-0.588,0.78-0.557,1.399c0.031,0.619,0.063,1.239,0.094,1.858
		c-0.064,1.25,0.906,1.838,1.877,1.795c0.971,0.043,1.94-0.545,1.877-1.795c0.031-0.619,0.063-1.239,0.095-1.858
		C48.283,77.047,48.051,76.585,47.694,76.268z"/>
	<path d="M48.103,105.986c-0.022-0.372-0.043-0.743-0.064-1.115c0.068-1.176-0.845-1.725-1.759-1.68
		c-0.914-0.047-1.827,0.504-1.759,1.68c-0.021,0.372-0.043,0.743-0.064,1.115c-0.019,0.332,0.057,0.605,0.177,0.844
		c0.048,0.829,0.095,1.659,0.143,2.488c0.111,1.938,2.894,1.938,3.006,0l0.143-2.488C48.046,106.591,48.123,106.319,48.103,105.986z
		"/>
	<path d="M39.617,99.017c-1.304-0.09-2.612-0.203-3.921-0.301c-0.307-0.142-0.663-0.225-1.076-0.217
		c-0.755,0.014-1.51,0.027-2.265,0.04c-1.598-0.028-2.38,1.21-2.36,2.448c-0.019,1.238,0.762,2.477,2.36,2.447
		c0.755,0.015,1.51,0.027,2.265,0.041c0.414,0.007,0.769-0.075,1.076-0.217c1.309-0.099,2.617-0.211,3.921-0.301
		C42.156,102.784,42.156,99.193,39.617,99.017z"/>
	<path d="M92.066,119.595c-1.993-1.418-4.775-1.149-6.723-2.697c-1.055-0.84-2.418,0.453-1.498,1.498
		c0.785,0.893,1.727,1.535,2.777,2.078c1.353,0.699,2.755,1.615,4.21,2.049C92.673,123.07,93.479,120.601,92.066,119.595z"/>
	<path d="M95.827,106.415c-2.56-2.622-6.553,0.603-7.549,3.14c-0.238,0.606,0.053,1.363,0.477,1.804
		c0.464,0.481,0.393,0.709,0.443,1.292c0.044,0.515,0.726,0.499,0.788,0c-0.105-0.501,0.086-0.773,0.572-0.814
		c0.465-0.135,0.862-0.435,1.108-0.853c0.225-0.384,0.459-0.622,0.843-0.841c1.1-0.625,2.354-0.187,3.319-1.252
		C96.472,108.175,96.517,107.122,95.827,106.415z"/>
	<path d="M83.873,88.094c-0.57,0.432-1.137,0.899-1.887,0.723c-0.721-0.168-1.182-0.849-1.97-1.01
		c-1.142-0.234-2.291,0.722-1.94,1.94c0.439,1.522,1.887,2.401,3.443,2.52c1.661,0.126,3.016-0.728,4.086-1.929
		C86.626,89.193,85.23,87.065,83.873,88.094z"/>
	<path d="M89.24,83.165c0.047-0.076,0.091-0.148,0.126-0.23c0.536-1.148,0.445-3.02,0.057-4.015c-0.573-1.472-2.421-1.472-2.994,0
		c-0.388,0.996-0.478,2.867,0.057,4.015c0.034,0.082,0.079,0.154,0.126,0.23c0.072,0.117,0.11,0.275,0.2,0.366
		c0.307,0.31,0.65,0.425,0.986,0.441c0.043,0.006,0.084,0.017,0.128,0.019c0.044-0.002,0.085-0.013,0.128-0.019
		c0.336-0.016,0.679-0.13,0.986-0.441C89.13,83.44,89.168,83.282,89.24,83.165z"/>
	<path d="M104.517,88.14l0.261,1.594c0.24,1.465,2.706,1.465,2.945,0c0.088-0.531,0.175-1.063,0.262-1.594
		C108.461,85.237,104.04,85.237,104.517,88.14z"/>
	<path d="M119.671,95.82c-1.478-0.663-3.477-1.049-5.091-0.987c-1.518,0.058-1.463,2.168,0,2.316
		c0.562,0.057,1.12,0.252,1.656,0.437c-0.04,0.943,0.515,1.914,1.676,1.82c0.941-0.076,2.021-0.18,2.551-1.086
		C120.98,97.437,120.608,96.24,119.671,95.82z"/>
	<path d="M122.918,110.394c-0.24,0.223-0.453,0.5-0.656,0.787c-1.138,1.375-2.355,3.146-2.397,4.8c-0.046,1.823,2.552,1.715,2.76,0
		c0.053-0.437,1.201-1.712,1.677-2.263c0.72-0.83,1.479-1.397,1.3-2.617C125.411,109.833,123.708,109.662,122.918,110.394z"/>
	<path d="M138.999,119.88c-1.301-1.127-3.092-2.377-3.36-4.195c-0.187-1.262-2.181-0.922-2.178,0.296
		c0.006,2.442,1.841,4.356,3.343,6.095C138.116,123.595,140.518,121.197,138.999,119.88z"/>
	<path d="M134.068,87.341c-0.693-2.242-3.854-4.15-6.162-4.144c-1.242,0.003-1.594,2.029-0.301,2.226
		c2.185,0.334,2.95,2.781,4.978,3.403C133.45,89.092,134.337,88.209,134.068,87.341z"/>
	<path d="M139.616,56.731c-1.309,1.834-1.503,3.765-1.231,5.943c0.19,1.523,2.17,1.518,2.365,0c0.198-1.542,0.587-2.651,1.808-3.673
		C144.521,57.354,141.289,54.388,139.616,56.731z"/>
	<path d="M152.987,85.207c-0.408-0.509-1.211-0.622-1.802-0.476c-1.428,0.351-2.4,2.571-3.112,3.726
		c-1.189,1.928,1.704,3.509,2.979,1.741c0.156-0.217,0.317-0.43,0.477-0.645c0.54-0.03,1.049-0.287,1.339-0.934
		C153.405,87.419,153.928,86.382,152.987,85.207z"/>
	<path d="M162.72,100.576c-0.518-1.503-2.083-1.928-3.062-3.081c-0.929-1.095-1.452-2.674-2.156-3.916
		c-0.807-1.423-3.362-0.432-2.702,1.139c0.687,1.633,1.159,3.398,2.075,4.924c0.923,1.539,2.835,3.4,4.761,2.843
		C162.409,102.261,162.999,101.384,162.72,100.576z"/>
</g>
<g>
</g>
<g>
</g>
<g>
</g>
<g>
</g>
<g>
</g>
<g>
</g>
<g>
</g>
<g>
</g>
<g>
</g>
<g>
</g>
<g>
</g>
<g>
</g>
<g>
</g>
<g>
</g>
<g>
</g>
</svg>
